<?xml version="1.0" encoding="UTF-8" standalone="no"?>
<svg
   viewBox="0 0 13.458001 13.073"
   version="1.1"
   x="0px"
   y="0px"
   id="svg5"
   sodipodi:docname="sandwich_logo.svg"
   inkscape:version="1.4.3 (0d15f75, 2025-12-25)"
   width="13.458"
   height="13.073"
   xmlns:inkscape="http://www.inkscape.org/namespaces/inkscape"
   xmlns:sodipodi="http://sodipodi.sourceforge.net/DTD/sodipodi-0.dtd"
   xmlns="http://www.w3.org/2000/svg"
   xmlns:svg="http://www.w3.org/2000/svg">
  <defs
     id="defs5" />
  <sodipodi:namedview
     id="namedview5"
     pagecolor="#ffffff"
     bordercolor="#000000"
     borderopacity="0.25"
     inkscape:showpageshadow="2"
     inkscape:pageopacity="0.0"
     inkscape:pagecheckerboard="0"
     inkscape:deskcolor="#d1d1d1"
     inkscape:zoom="11.561026"
     inkscape:cx="-14.920822"
     inkscape:cy="1.081219"
     inkscape:window-width="1440"
     inkscape:window-height="786"
     inkscape:window-x="0"
     inkscape:window-y="30"
     inkscape:window-maximized="1"
     inkscape:current-layer="svg5" />
  <g
     transform="translate(-6.4710554,-277.21577)"
     id="g4">
    <g
       transform="translate(-61.777359,361.62423)"
       fill="#000000"
       id="g3">
      <path
         transform="scale(0.26458333)"
         d="m 304.19336,-318.46875 a 1.0001,1.0001 0 0 0 -0.14063,0.0137 c -0.0166,0.003 -0.0411,0.01 -0.0664,0.0156 -0.006,0.001 -0.0151,0.006 -0.0215,0.008 l 0.006,-0.008 c -0.005,0.001 -0.0154,0.006 -0.0215,0.008 -0.008,0.002 -0.0191,0.003 -0.0293,0.006 h -0.008 c -0.004,8.9e-4 -0.0115,0.007 -0.0156,0.008 -3.50031,0.72528 -7.9709,1.65119 -12.74023,2.63672 -4.80542,0.99299 -9.89753,2.04377 -14.54883,3.00391 -4.6513,0.96013 -8.86653,1.82789 -11.91601,2.45703 -3.00848,0.62068 -4.8211,0.99555 -4.8711,1.00586 a 1.0001,1.0001 0 0 0 -0.14258,0.0312 1.0001,1.0001 0 0 0 -0.7207,1.27539 v 0.92773 1.24805 1.24805 1.24023 a 1.0001,1.0001 0 0 0 0.65625,0.94531 l 0.35352,0.12891 a 1.0001,1.0001 0 0 0 0.16406,0.13672 c 0.20043,0.13292 0.39058,0.29667 0.56055,0.47851 0.16996,0.18184 0.32162,0.3841 0.44336,0.5918 0.1217,0.20761 0.21209,0.42224 0.27343,0.62695 0.0613,0.2047 0.0956,0.39651 0.0957,0.56836 0,0.0498 0.0162,0.021 -0.0742,0.10352 -0.0904,0.0825 -0.29764,0.20784 -0.53907,0.29492 -0.24139,0.0871 -0.5093,0.15028 -0.70898,0.18555 -0.19948,0.0352 -0.30859,0.0371 -0.30859,0.0371 a 1.0001,1.0001 0 0 0 -0.29102,1.92968 1.0005734,1.0005734 0 0 0 0.0312,0.0117 c 0.11796,0.0429 0.23558,0.086 0.35352,0.12891 a 1.0000999,1.0000999 0 0 0 0.16406,0.13476 c 0.20047,0.13282 0.39012,0.29446 0.56055,0.47657 0.16849,0.18002 0.31862,0.38259 0.4414,0.59179 0.12144,0.2069 0.21536,0.41852 0.27735,0.625 0.0612,0.20414 0.0897,0.40023 0.0898,0.57227 0,0.21793 -0.0422,0.3676 -0.0937,0.4707 -0.0522,0.10466 -0.11036,0.16564 -0.1875,0.21485 -0.0784,0.05 -0.17958,0.0887 -0.33008,0.0976 -0.14973,0.009 -0.34991,-0.0147 -0.58594,-0.0996 -0.002,-7.8e-4 -0.004,-10e-4 -0.006,-0.002 a 1.0000999,1.0000999 0 0 0 -0.36133,-0.0625 1.0000999,1.0000999 0 0 0 -0.98047,1 v 0.002 1.24414 1.2461 1.24609 1.24609 a 1.0000999,1.0000999 0 0 0 0.6582,0.93946 l 5.88867,2.14258 5.88867,2.14257 5.88868,2.14258 4.40234,1.60157 1.48633,0.54101 2.00391,0.72852 3.54882,1.29101 a 1.0002463,1.0002463 0 0 0 0.12305,0.0449 1.0002463,1.0002463 0 0 0 0.004,0.002 l 0.20898,0.0762 5.88867,2.14258 5.89063,2.14453 5.88867,2.14258 a 1.0000999,1.0000999 0 0 0 1.3418,-0.93946 v -1.24609 -1.24609 -1.2461 -1.24609 a 1.0000999,1.0000999 0 0 0 -0.5625,-0.89844 1.0000999,1.0000999 0 0 0 -0.0762,-0.0332 1.0000999,1.0000999 0 0 0 -0.0156,-0.006 1.0000999,1.0000999 0 0 0 -0.006,-0.002 c -0.23936,-0.0871 -0.48222,-0.22477 -0.71289,-0.40626 -0.22915,-0.18028 -0.44483,-0.40548 -0.62305,-0.64843 -0.17877,-0.24374 -0.32077,-0.50541 -0.41406,-0.75977 -0.0931,-0.25383 -0.13867,-0.50239 -0.13867,-0.7207 1e-4,-0.17102 0.0272,-0.30059 0.0664,-0.40234 0.0394,-0.10262 0.088,-0.17102 0.13672,-0.21876 0.0501,-0.049 0.11044,-0.0888 0.19922,-0.11914 0.0844,-0.0287 0.1976,-0.047 0.34961,-0.0371 a 1.0000999,1.0000999 0 0 0 0.16602,-0.004 c 0.0964,0.0352 0.19268,0.0704 0.28906,0.10547 a 1.0008733,1.0008733 0 0 0 0.67969,-1.88282 c -0.23951,-0.0872 -0.479,-0.22531 -0.70899,-0.40624 -0.23006,-0.18097 -0.44899,-0.40779 -0.62695,-0.6504 -0.17798,-0.24264 -0.32024,-0.50401 -0.41406,-0.75976 -0.0938,-0.2558 -0.14063,-0.50049 -0.14063,-0.7168 1.1e-4,-0.1717 0.0283,-0.30492 0.0664,-0.4043 0.0381,-0.0994 0.0881,-0.16347 0.14062,-0.21484 0.0525,-0.0514 0.1135,-0.0898 0.19922,-0.11914 0.0857,-0.0295 0.19667,-0.0527 0.34766,-0.043 a 1.0001,1.0001 0 0 0 0.15625,-0.006 l 0.30078,0.10938 a 1.0001,1.0001 0 0 0 1.33398,-0.80469 1.0002463,1.0002463 0 0 0 0.002,-0.0137 1.0001,1.0001 0 0 0 0.002,-0.0312 1.0002463,1.0002463 0 0 0 0.006,-0.0684 1.0001,1.0001 0 0 0 0,-0.0273 v -1.24024 -1.24805 -1.24804 -1.2461 -5.85351 -5.86133 -5.86133 -5.85351 c 0,-0.52786 -0.10782,-1.03732 -0.30274,-1.49805 -0.19491,-0.46071 -0.47884,-0.87927 -0.82617,-1.22656 -0.34734,-0.3473 -0.75801,-0.62352 -1.21875,-0.81836 -0.33592,-0.14204 -0.71612,-0.18124 -1.09179,-0.22266 a 1.0001,1.0001 0 0 0 -0.43555,-0.0879 z m 0.0664,2.01563 c 0.24272,0.005 0.46903,0.0446 0.67773,0.13281 0.22001,0.0931 0.41649,0.23097 0.58398,0.39843 0.16751,0.16748 0.3054,0.36212 0.39844,0.58204 0.093,0.21989 0.14844,0.46696 0.14844,0.72461 v 5.85351 5.86133 5.86133 4.42968 l -4.54688,-1.65429 -5.89062,-2.14063 -5.89258,-2.14843 -0.1289,-0.0469 a 1.0001001,1.0001001 0 0 0 -0.31446,-0.11523 l -3.28125,-1.19336 a 1.0001001,1.0001001 0 0 0 -0.27734,-0.10157 l -1.88086,-0.68359 -1.32813,-0.48047 a 1.0001001,1.0001001 0 0 0 -0.28711,-0.10547 l -1.03515,-0.38086 -1.32813,-0.48046 -1.32226,-0.48047 a 1.0018673,1.0018673 0 1 0 -0.68555,1.88281 l 1.32813,0.48047 1.32226,0.47851 0.52344,0.18946 v 0.54882 1.24805 1.06055 l -3.07813,-1.11914 -5.89062,-2.14063 -5.89063,-2.14843 -5.22656,-1.89649 v -0.54687 -1.24805 -1.0625 l 1.86133,0.67187 3.19531,1.16602 3.20313,1.16602 3.19726,1.16601 a 1.0018313,1.0018313 0 1 0 0.68555,-1.88086 l -3.20313,-1.16797 -3.19531,-1.16601 -3.08984,-1.11719 c 0.68777,-0.14188 0.56836,-0.11726 1.48633,-0.30664 3.04953,-0.62915 7.26266,-1.49883 11.91406,-2.45899 4.65139,-0.96015 9.73735,-2.01087 14.54297,-3.0039 4.7531,-0.98218 9.2094,-1.90265 12.70508,-2.62695 z m -40.91797,15.51562 1.21093,0.44336 2.10352,0.76758 0.91797,0.33203 2.72656,0.99219 0.5332,0.19531 0.0879,0.0312 c -0.0944,0.14921 -0.22366,0.27572 -0.28711,0.4414 -0.13406,0.34988 -0.19907,0.72481 -0.19922,1.11524 0,0.41537 0.098,0.81486 0.2207,1.20312 l -1.20898,-0.44336 -2.28907,-0.83398 -2.28906,-0.83398 -1.92578,-0.69336 c 0.0735,-0.10454 0.19251,-0.16632 0.25,-0.28125 0.20583,-0.41173 0.31055,-0.87852 0.31055,-1.36524 -2e-4,-0.36499 -0.0643,-0.72266 -0.16211,-1.07031 z m 19.70117,2.08008 0.12695,0.0469 1.36524,0.4961 v 0.54297 1.24804 1.06055 l -0.67969,-0.24805 -0.8125,-0.29492 v -0.54687 -1.24024 z m 3.49219,1.26953 1.58007,0.57422 v 0.54883 1.24023 1.06445 l -1.58007,-0.57617 v -0.54687 -1.24024 z m -13.43555,0.20312 4.36328,1.58594 5.70703,2.07422 5.70508,2.08008 5.70703,2.07422 5.70508,2.07617 3.71484,1.35742 c -0.0931,0.14797 -0.22621,0.27154 -0.28906,0.43555 -0.13417,0.34994 -0.19899,0.73078 -0.19922,1.12109 0,0.41557 0.10565,0.81478 0.22852,1.20313 -0.1135,-0.0413 -0.22635,-0.0837 -0.33985,-0.125 -0.66701,-0.2428 -1.33292,-0.4877 -2,-0.73047 -0.66705,-0.24276 -1.33292,-0.47993 -2,-0.72266 a 1.0001,1.0001 0 0 0 -1.34375,0.9375 v 0.89258 0.90039 0.89258 0.90234 c 0,0.10139 -0.0307,0.18868 -0.0547,0.2793 -0.0123,0.0441 -0.01,0.095 -0.0274,0.13672 -0.0103,0.0245 -0.0434,0.0647 -0.0605,0.0937 -0.0487,0.086 -0.0973,0.17152 -0.16797,0.24219 -0.0967,0.0967 -0.21259,0.17488 -0.33985,0.22851 -0.0509,0.0214 -0.11288,0.0207 -0.16797,0.0352 -0.082,0.0201 -0.15909,0.0508 -0.25,0.0508 -0.0984,0 -0.18217,-0.0313 -0.26953,-0.0547 -0.0471,-0.0136 -0.1015,-0.0122 -0.14648,-0.0312 -0.12726,-0.0536 -0.24313,-0.1318 -0.33984,-0.22851 -0.0613,-0.0613 -0.0995,-0.13839 -0.14454,-0.21094 -0.0261,-0.0437 -0.0637,-0.0768 -0.084,-0.125 -0.0537,-0.12745 -0.084,-0.2654 -0.084,-0.41797 v -1.27344 -1.27344 -1.27343 -1.16407 a 1.0000999,1.0000999 0 0 0 -0.004,-0.0664 v -0.041 a 1.0001,1.0001 0 0 0 -0.65625,-0.9375 c -0.79606,-0.28966 -1.58868,-0.58145 -2.38477,-0.87109 -0.79606,-0.28963 -1.5965,-0.58147 -2.39257,-0.87109 -0.79606,-0.28963 -1.58869,-0.57561 -2.38477,-0.86524 -0.79606,-0.28962 -1.59458,-0.57948 -2.39063,-0.86914 a 1.0001,1.0001 0 0 0 -1.23437,0.48242 1.0000999,1.0000999 0 0 0 -0.043,0.0703 c -0.01,0.0182 -0.0124,0.0192 -0.0215,0.0352 -0.0342,0.0594 -0.0667,0.12078 -0.11133,0.17188 -0.0653,0.0747 -0.13816,0.13785 -0.22071,0.1914 0,0 -0.002,0.002 -0.002,0.002 -0.0819,0.0529 -0.16863,0.0945 -0.26367,0.12305 -0.0955,0.0287 -0.20071,0.0449 -0.31055,0.0449 -0.15254,0 -0.29023,-0.0302 -0.41797,-0.084 -0.13024,-0.0549 -0.24524,-0.132 -0.33984,-0.22656 -0.0323,-0.0322 -0.0482,-0.077 -0.0762,-0.11328 -0.0537,-0.0723 -0.11266,-0.1417 -0.14844,-0.22657 -0.0533,-0.12657 -0.0876,-0.26625 -0.0879,-0.41797 v -0.002 -0.13281 -0.002 -0.13672 -0.002 -0.13281 -0.002 -0.0312 -0.10742 a 1.0001,1.0001 0 0 0 -0.6582,-0.9375 c -1.78976,-0.65124 -3.57549,-1.30377 -5.36524,-1.95508 -0.6653,-0.24212 -1.33191,-0.48339 -1.99804,-0.72461 a 1.0018313,1.0018313 0 0 0 -0.084,-0.0371 c -0.23951,-0.0871 -0.48682,-0.2234 -0.71679,-0.4043 -0.22988,-0.18085 -0.44128,-0.40004 -0.61915,-0.64258 -0.17786,-0.24253 -0.32031,-0.50603 -0.41406,-0.76171 -0.0937,-0.25565 -0.14062,-0.50621 -0.14062,-0.72266 8e-5,-0.17159 0.0283,-0.29893 0.0664,-0.39844 0.0381,-0.0994 0.0802,-0.16922 0.13282,-0.2207 0.0526,-0.0515 0.11357,-0.0898 0.19921,-0.11914 0.064,-0.022 0.16533,-0.0251 0.26563,-0.0274 z m 17.01562,1.09766 4.82813,1.75781 5.89062,2.14063 5.23438,1.90429 v 0.54493 1.24804 1.0625 l -4.54688,-1.65234 -5.89062,-2.14063 -5.51563,-2.01171 v -0.54297 -1.24805 z m -26.77929,0.44141 0.01,0.004 1.50196,0.54688 1.50195,0.54687 1.33398,0.48438 1.33008,0.48633 a 1.0000999,1.0000999 0 0 0 0.002,0 l 1.33399,0.48437 1.33398,0.48633 1.10157,0.40039 1.10156,0.40039 1.10156,0.40039 1.10156,0.40039 1.76954,0.64453 1.76953,0.64258 0.80273,0.29297 v -0.10547 c 0.005,0.002 0.0104,0.004 0.0156,0.006 0.019,0.36258 0.0895,0.71481 0.22461,1.03516 0.1556,0.36899 0.3808,0.69924 0.6582,0.97656 0.27887,0.27883 0.61221,0.50233 0.97656,0.65625 0.18393,0.0775 0.37788,0.13706 0.57813,0.17773 0.20032,0.0415 0.40678,0.0625 0.61718,0.0625 0.30448,0 0.60439,-0.0408 0.88477,-0.125 0.27995,-0.084 0.53638,-0.20629 0.77539,-0.36132 0.001,-7.8e-4 0.003,-0.001 0.004,-0.002 0.004,-0.003 0.007,-0.007 0.0117,-0.01 0.17468,-0.11556 0.33078,-0.25844 0.47657,-0.40821 l 3.21875,1.16993 5.04883,1.83789 v 0.46289 1.27343 1.11914 l -4.18165,-1.52148 -0.12695,-0.0469 a 1.0001001,1.0001001 0 0 0 -0.32422,-0.11719 l -3.24414,-1.17969 a 1.0001001,1.0001001 0 0 0 -0.002,-0.002 1.0001001,1.0001001 0 0 0 -0.34375,-0.125 l -1.84766,-0.67188 -1.29883,-0.47265 a 1.0001001,1.0001001 0 0 0 -0.002,-0.002 1.0001001,1.0001001 0 0 0 -0.34375,-0.125 l -0.125,-0.0449 -1.76953,-0.64453 -1.6582,-0.60352 a 1.0001001,1.0001001 0 0 0 -0.29688,-0.10742 l -1.58398,-0.57812 c -0.21528,-0.0783 -0.42777,-0.15443 -0.63672,-0.23047 -0.21018,-0.0765 -0.42268,-0.15456 -0.63672,-0.23242 -0.21528,-0.0783 -0.42777,-0.15443 -0.63672,-0.23047 -7.8e-4,-2.8e-4 -0.001,-0.002 -0.002,-0.002 l -0.29688,-0.10742 c -0.11257,-0.0412 -0.22434,-0.0817 -0.33789,-0.12304 a 1.0000999,1.0000999 0 0 0 -0.004,0 1.0000999,1.0000999 0 0 0 -0.18946,-0.0488 1.0000999,1.0000999 0 0 0 -0.004,0 1.0000999,1.0000999 0 0 0 -0.0957,-0.01 1.0000999,1.0000999 0 0 0 -0.004,0 1.0000999,1.0000999 0 0 0 -0.23828,0.0176 1.0000999,1.0000999 0 0 0 -0.0547,0.0117 1.0000999,1.0000999 0 0 0 -0.004,0.002 1.0000999,1.0000999 0 0 0 -0.0918,0.0274 1.0000999,1.0000999 0 0 0 -0.004,0.002 1.0000999,1.0000999 0 0 0 -0.17578,0.0859 1.0000999,1.0000999 0 0 0 -0.004,0.002 1.0000999,1.0000999 0 0 0 -0.0781,0.0547 1.0000999,1.0000999 0 0 0 -0.0645,0.0527 1.0000999,1.0000999 0 0 0 -0.082,0.082 1.0000999,1.0000999 0 0 0 -0.11719,0.16407 1.0000999,1.0000999 0 0 0 -0.002,0.002 1.0000999,1.0000999 0 0 0 -0.0351,0.0664 c -0.0449,0.0945 -0.0981,0.17898 -0.16016,0.25 -0.0666,0.0762 -0.14384,0.14097 -0.22461,0.19335 -0.0796,0.0517 -0.1684,0.0953 -0.26758,0.125 -0.10004,0.0302 -0.20081,0.0449 -0.30664,0.0449 -0.1525,0 -0.29026,-0.0302 -0.41797,-0.084 -0.12616,-0.0532 -0.24278,-0.13149 -0.33984,-0.22851 -0.0968,-0.0967 -0.17519,-0.21338 -0.22852,-0.33985 -0.0537,-0.12741 -0.084,-0.26539 -0.084,-0.41797 v -0.13672 -0.13671 -0.13672 -0.13477 a 1.0000999,1.0000999 0 0 0 0,-0.002 1.0000999,1.0000999 0 0 0 -0.006,-0.0977 1.0000999,1.0000999 0 0 0 0,-0.002 1.0000999,1.0000999 0 0 0 -0.0137,-0.0977 1.0000999,1.0000999 0 0 0 0,-0.002 1.0000999,1.0000999 0 0 0 -0.0254,-0.0937 1.0000999,1.0000999 0 0 0 0,-0.002 1.0000999,1.0000999 0 0 0 -0.0781,-0.18164 1.0000999,1.0000999 0 0 0 0,-0.002 1.0000999,1.0000999 0 0 0 -0.0527,-0.084 1.0000999,1.0000999 0 0 0 0,-0.002 1.0000999,1.0000999 0 0 0 -0.0605,-0.0781 1.0000999,1.0000999 0 0 0 0,-0.002 1.0000999,1.0000999 0 0 0 -0.0664,-0.0703 1.0000999,1.0000999 0 0 0 -0.35546,-0.2246 c -0.27081,-0.0985 -0.54227,-0.19774 -0.81446,-0.29688 -0.27118,-0.0988 -0.54259,-0.19781 -0.81445,-0.29687 -0.27523,-0.10031 -0.54649,-0.19734 -0.81445,-0.29493 -0.27092,-0.0986 -0.54205,-0.19773 -0.81446,-0.29687 l -1.68554,-0.61328 -1.40039,-0.50781 -0.13868,-0.0508 -0.14453,-0.0527 -0.71875,-0.26172 c 0.0727,-0.10386 0.19312,-0.16538 0.25,-0.2793 0.20606,-0.41268 0.30469,-0.88009 0.30469,-1.36523 -3e-4,-0.36457 -0.0662,-0.72249 -0.16406,-1.07031 z m -2.38086,4.11718 0.3418,0.125 1.68164,0.61329 h 0.002 l 0.28125,0.10351 a 1.0000999,1.0000999 0 0 0 0.002,0 l 2.23828,0.81445 0.84766,0.30665 c 0.27076,0.0985 0.5422,0.1977 0.81445,0.29687 l 1.78516,0.65039 v -0.002 c 0.005,0.002 0.0104,0.004 0.0156,0.006 0.0188,0.36328 0.0893,0.71618 0.22461,1.03711 0.15561,0.36903 0.38082,0.69925 0.65821,0.97656 0.27704,0.277 0.60716,0.5025 0.97656,0.6582 0.36786,0.15504 0.77451,0.24024 1.19531,0.24024 0.30841,0 0.60508,-0.0481 0.88086,-0.13086 0.27666,-0.083 0.54129,-0.20241 0.7832,-0.35938 0.21483,-0.13939 0.39969,-0.312 0.57032,-0.49609 l 1.19921,0.43555 1.72266,0.6289 v 0.54297 1.24805 1.0625 l -5.10156,-1.85547 -5.88867,-2.14258 -5.23047,-1.9043 v -0.54492 -1.24609 z m 18.2207,6.63086 0.45313,0.16407 1.02929,0.375 0.38477,0.14062 v 0.54688 1.24023 1.06836 l -1.86719,-0.67969 v -0.54297 -1.24804 z m 3.86719,1.40821 0.125,0.0449 1.36719,0.49805 v 0.54492 1.24023 1.06836 l -0.6836,-0.24805 -0.80859,-0.29492 v -0.54687 -1.24805 z m 17.01758,1.20703 0.22461,0.082 3.71875,1.35351 c -0.0938,0.14949 -0.22426,0.27735 -0.28711,0.44141 -0.13327,0.3476 -0.199,0.7262 -0.19922,1.11719 0,0.41282 0.0983,0.8105 0.2207,1.19922 l -2.21875,-0.80664 a 1.0000999,1.0000999 0 0 0 -0.002,0 l -0.01,-0.004 -0.15625,-0.0566 -1.39648,-0.50977 c 0.0584,-0.23234 0.0961,-0.47093 0.0996,-0.71875 6.3e-4,-0.016 0.006,-0.0306 0.006,-0.0469 v -0.89648 -0.89844 z m -13.52539,0.0625 0.66601,0.24219 0.91406,0.33398 v 0.54297 1.24609 1.06446 l -1.58007,-0.57422 v -0.54883 -1.24805 z m 3.58007,1.30273 2.26563,0.82422 1.63867,0.59766 c 0.0379,0.15755 0.0787,0.31404 0.14063,0.46093 0.15526,0.36821 0.38073,0.69723 0.6582,0.97461 0.13869,0.13866 0.29023,0.26287 0.45312,0.37305 10e-4,7.9e-4 0.003,0.001 0.004,0.002 0.16186,0.10915 0.33477,0.20421 0.51758,0.28125 5.3e-4,2.3e-4 0.001,-2.2e-4 0.002,0 0.36787,0.15478 0.77321,0.24414 1.19336,0.24414 0.32205,0 0.62918,-0.0663 0.92383,-0.16015 0.0904,-0.0288 0.18504,-0.0476 0.27148,-0.084 0.001,-4.7e-4 0.003,4.8e-4 0.004,0 0.0137,-0.006 0.0238,-0.0171 0.0371,-0.0234 0.20366,-0.0895 0.39381,-0.20285 0.57227,-0.33203 l 2.0371,0.74218 0.16797,0.0605 5.06446,1.84375 v 0.54492 1.2461 1.06445 l -4.54688,-1.6543 -5.89062,-2.14453 -5.51368,-2.00586 v -0.54492 -1.24805 z"
         style="color:#000000;font-style:normal;font-variant:normal;font-weight:normal;font-stretch:normal;font-size:medium;line-height:normal;font-family:sans-serif;font-variant-ligatures:normal;font-variant-position:normal;font-variant-caps:normal;font-variant-numeric:normal;font-variant-alternates:normal;font-feature-settings:normal;text-indent:0;text-align:start;text-decoration:none;text-decoration-line:none;text-decoration-style:solid;text-decoration-color:#000000;letter-spacing:normal;word-spacing:normal;text-transform:none;writing-mode:lr-tb;direction:ltr;text-orientation:mixed;dominant-baseline:auto;baseline-shift:baseline;text-anchor:start;white-space:normal;shape-padding:0;clip-rule:nonzero;display:inline;overflow:visible;visibility:visible;opacity:1;isolation:auto;mix-blend-mode:normal;color-interpolation:sRGB;color-interpolation-filters:linearRGB;solid-color:#000000;solid-opacity:1;vector-effect:none;fill:#000000;fill-opacity:1;fill-rule:nonzero;stroke:none;stroke-width:2;stroke-linecap:round;stroke-linejoin:round;stroke-miterlimit:4;stroke-dasharray:none;stroke-dashoffset:0;stroke-opacity:1;paint-order:normal;color-rendering:auto;image-rendering:auto;shape-rendering:auto;text-rendering:auto;enable-background:accumulate"
         id="path1" />
      <path
         d="m 79.945312,-82.998047 a 0.26460978,0.26460978 0 0 0 -0.04492,0.0059 c -0.08804,0.01822 -0.178284,0.0358 -0.269532,0.05469 -0.09123,0.01887 -0.183266,0.03913 -0.277343,0.05859 -0.09408,0.01945 -0.188581,0.03862 -0.285157,0.05859 -0.09658,0.01997 -0.19423,0.04014 -0.292968,0.06055 a 0.26460978,0.26460978 0 1 0 0.105468,0.517578 c 0.09876,-0.02041 0.196387,-0.04058 0.292969,-0.06055 0.09658,-0.01997 0.193045,-0.03915 0.28711,-0.05859 0.09406,-0.01946 0.186111,-0.03777 0.277343,-0.05664 0.09121,-0.01888 0.181467,-0.03842 0.269531,-0.05664 a 0.26460978,0.26460978 0 0 0 -0.0625,-0.523438 z"
         style="color:#000000;font-style:normal;font-variant:normal;font-weight:normal;font-stretch:normal;font-size:medium;line-height:normal;font-family:sans-serif;font-variant-ligatures:normal;font-variant-position:normal;font-variant-caps:normal;font-variant-numeric:normal;font-variant-alternates:normal;font-feature-settings:normal;text-indent:0;text-align:start;text-decoration:none;text-decoration-line:none;text-decoration-style:solid;text-decoration-color:#000000;letter-spacing:normal;word-spacing:normal;text-transform:none;writing-mode:lr-tb;direction:ltr;text-orientation:mixed;dominant-baseline:auto;baseline-shift:baseline;text-anchor:start;white-space:normal;shape-padding:0;clip-rule:nonzero;display:inline;overflow:visible;visibility:visible;opacity:1;isolation:auto;mix-blend-mode:normal;color-interpolation:sRGB;color-interpolation-filters:linearRGB;solid-color:#000000;solid-opacity:1;vector-effect:none;fill:#000000;fill-opacity:1;fill-rule:nonzero;stroke:none;stroke-width:0.529167;stroke-linecap:round;stroke-linejoin:round;stroke-miterlimit:4;stroke-dasharray:none;stroke-dashoffset:0;stroke-opacity:1;paint-order:normal;color-rendering:auto;image-rendering:auto;shape-rendering:auto;text-rendering:auto;enable-background:accumulate"
         id="path2" />
      <path
         d="m 77.511719,-82.496094 a 0.26460978,0.26460978 0 0 0 -0.04297,0.0059 c -0.337574,0.06974 -0.679604,0.141145 -1.017578,0.210937 -0.337978,0.06979 -0.672976,0.137568 -1,0.205078 -0.327027,0.06751 -0.644488,0.134372 -0.949219,0.197266 -0.304736,0.06289 -0.596098,0.121794 -0.867187,0.177734 a 0.26526022,0.26526022 0 1 0 0.107422,0.519531 c 0.2711,-0.05594 0.5605,-0.116797 0.865234,-0.179687 0.304739,-0.0629 0.624139,-0.127802 0.951172,-0.195313 0.327036,-0.06751 0.662017,-0.13724 1,-0.207031 0.337983,-0.06979 0.678031,-0.139242 1.015625,-0.208984 a 0.26460978,0.26460978 0 0 0 -0.0625,-0.525391 z"
         style="color:#000000;font-style:normal;font-variant:normal;font-weight:normal;font-stretch:normal;font-size:medium;line-height:normal;font-family:sans-serif;font-variant-ligatures:normal;font-variant-position:normal;font-variant-caps:normal;font-variant-numeric:normal;font-variant-alternates:normal;font-feature-settings:normal;text-indent:0;text-align:start;text-decoration:none;text-decoration-line:none;text-decoration-style:solid;text-decoration-color:#000000;letter-spacing:normal;word-spacing:normal;text-transform:none;writing-mode:lr-tb;direction:ltr;text-orientation:mixed;dominant-baseline:auto;baseline-shift:baseline;text-anchor:start;white-space:normal;shape-padding:0;clip-rule:nonzero;display:inline;overflow:visible;visibility:visible;opacity:1;isolation:auto;mix-blend-mode:normal;color-interpolation:sRGB;color-interpolation-filters:linearRGB;solid-color:#000000;solid-opacity:1;vector-effect:none;fill:#000000;fill-opacity:1;fill-rule:nonzero;stroke:none;stroke-width:0.529167;stroke-linecap:round;stroke-linejoin:round;stroke-miterlimit:4;stroke-dasharray:none;stroke-dashoffset:0;stroke-opacity:1;paint-order:normal;color-rendering:auto;image-rendering:auto;shape-rendering:auto;text-rendering:auto;enable-background:accumulate"
         id="path3" />
    </g>
  </g>
</svg>
